<mxfile host="app.diagrams.net" modified="2023-11-26T18:52:55.414Z" agent="Mozilla/5.0 (Windows NT 10.0; Win64; x64) AppleWebKit/537.36 (KHTML, like Gecko) Chrome/118.0.0.0 Safari/537.36 OPR/104.0.0.0 (Edition Yx GX)" etag="-YXJDCMoAd4yQmKYyITO" version="22.1.4" type="github">
  <diagram name="Страница — 1" id="fjryCNZ5wAOFy8gEB13y">
    <mxGraphModel dx="2883" dy="2829" grid="1" gridSize="10" guides="1" tooltips="1" connect="1" arrows="1" fold="1" page="1" pageScale="1" pageWidth="827" pageHeight="1169" math="0" shadow="0">
      <root>
        <mxCell id="0" />
        <mxCell id="1" parent="0" />
        <mxCell id="w90q0pXr2HdE4XPb6Oip-1" value="" style="edgeStyle=orthogonalEdgeStyle;rounded=0;orthogonalLoop=1;jettySize=auto;html=1;" edge="1" parent="1" source="w90q0pXr2HdE4XPb6Oip-2">
          <mxGeometry relative="1" as="geometry">
            <mxPoint x="310" y="-370" as="targetPoint" />
          </mxGeometry>
        </mxCell>
        <mxCell id="w90q0pXr2HdE4XPb6Oip-2" value="&lt;p style=&quot;line-height: 110%;&quot;&gt;&lt;span style=&quot;font-size: 18px;&quot;&gt;strlen&lt;/span&gt;&lt;/p&gt;" style="ellipse;whiteSpace=wrap;html=1;" vertex="1" parent="1">
          <mxGeometry x="255" y="-470" width="110" height="60" as="geometry" />
        </mxCell>
        <mxCell id="w90q0pXr2HdE4XPb6Oip-3" value="&lt;span style=&quot;font-size: 25px;&quot;&gt;Ввод &lt;br&gt;s&lt;br&gt;&lt;/span&gt;" style="shape=parallelogram;perimeter=parallelogramPerimeter;whiteSpace=wrap;html=1;fixedSize=1;" vertex="1" parent="1">
          <mxGeometry x="250" y="-369" width="120" height="60" as="geometry" />
        </mxCell>
        <mxCell id="w90q0pXr2HdE4XPb6Oip-4" value="len = 0" style="rounded=0;whiteSpace=wrap;html=1;fontSize=20;" vertex="1" parent="1">
          <mxGeometry x="238.18" y="-260" width="145.64" height="51" as="geometry" />
        </mxCell>
        <mxCell id="w90q0pXr2HdE4XPb6Oip-5" value="" style="edgeStyle=orthogonalEdgeStyle;rounded=0;orthogonalLoop=1;jettySize=auto;html=1;exitX=0.5;exitY=1;exitDx=0;exitDy=0;entryX=0.5;entryY=0;entryDx=0;entryDy=0;" edge="1" parent="1" target="w90q0pXr2HdE4XPb6Oip-4">
          <mxGeometry relative="1" as="geometry">
            <mxPoint x="330" y="-211" as="targetPoint" />
            <mxPoint x="310" y="-309" as="sourcePoint" />
          </mxGeometry>
        </mxCell>
        <mxCell id="w90q0pXr2HdE4XPb6Oip-6" value="* p = s" style="rounded=0;whiteSpace=wrap;html=1;fontSize=20;" vertex="1" parent="1">
          <mxGeometry x="238.18" y="-160" width="145.64" height="51" as="geometry" />
        </mxCell>
        <mxCell id="w90q0pXr2HdE4XPb6Oip-7" value="" style="edgeStyle=orthogonalEdgeStyle;rounded=0;orthogonalLoop=1;jettySize=auto;html=1;exitX=0.5;exitY=1;exitDx=0;exitDy=0;entryX=0.5;entryY=0;entryDx=0;entryDy=0;" edge="1" parent="1" target="w90q0pXr2HdE4XPb6Oip-6">
          <mxGeometry relative="1" as="geometry">
            <mxPoint x="330" y="-111" as="targetPoint" />
            <mxPoint x="310" y="-209" as="sourcePoint" />
          </mxGeometry>
        </mxCell>
        <mxCell id="w90q0pXr2HdE4XPb6Oip-8" value="" style="edgeStyle=orthogonalEdgeStyle;rounded=0;orthogonalLoop=1;jettySize=auto;html=1;exitX=0.5;exitY=1;exitDx=0;exitDy=0;entryX=0.5;entryY=0;entryDx=0;entryDy=0;" edge="1" parent="1" target="w90q0pXr2HdE4XPb6Oip-9">
          <mxGeometry relative="1" as="geometry">
            <mxPoint x="311.0000000000002" y="-60" as="targetPoint" />
            <mxPoint x="310" y="-109" as="sourcePoint" />
          </mxGeometry>
        </mxCell>
        <mxCell id="w90q0pXr2HdE4XPb6Oip-9" value="&lt;span style=&quot;font-size: 20px;&quot;&gt;* p == &#39;\0&#39;&lt;/span&gt;" style="rhombus;whiteSpace=wrap;html=1;" vertex="1" parent="1">
          <mxGeometry x="243.59" y="-60" width="133.41" height="80" as="geometry" />
        </mxCell>
        <mxCell id="w90q0pXr2HdE4XPb6Oip-10" value="" style="edgeStyle=orthogonalEdgeStyle;rounded=0;orthogonalLoop=1;jettySize=auto;html=1;exitX=0;exitY=0.5;exitDx=0;exitDy=0;" edge="1" parent="1">
          <mxGeometry relative="1" as="geometry">
            <mxPoint x="243.59000000000003" y="-20" as="sourcePoint" />
            <mxPoint x="153.59000000000003" y="60" as="targetPoint" />
            <Array as="points">
              <mxPoint x="153.59000000000003" y="-20" />
            </Array>
          </mxGeometry>
        </mxCell>
        <mxCell id="w90q0pXr2HdE4XPb6Oip-11" value="&lt;span style=&quot;font-size: 25px;&quot;&gt;Вывод&lt;br&gt;len&lt;br&gt;&lt;/span&gt;" style="shape=parallelogram;perimeter=parallelogramPerimeter;whiteSpace=wrap;html=1;fixedSize=1;" vertex="1" parent="1">
          <mxGeometry x="90" y="60" width="120" height="60" as="geometry" />
        </mxCell>
        <mxCell id="w90q0pXr2HdE4XPb6Oip-12" value="" style="edgeStyle=orthogonalEdgeStyle;rounded=0;orthogonalLoop=1;jettySize=auto;html=1;exitX=0.5;exitY=1;exitDx=0;exitDy=0;" edge="1" parent="1">
          <mxGeometry relative="1" as="geometry">
            <mxPoint x="149.55" y="169" as="targetPoint" />
            <mxPoint x="149.55" y="120" as="sourcePoint" />
          </mxGeometry>
        </mxCell>
        <mxCell id="w90q0pXr2HdE4XPb6Oip-13" value="&lt;p style=&quot;line-height: 110%;&quot;&gt;&lt;span style=&quot;font-size: 18px;&quot;&gt;Конец&lt;/span&gt;&lt;/p&gt;" style="ellipse;whiteSpace=wrap;html=1;" vertex="1" parent="1">
          <mxGeometry x="94" y="168" width="110" height="60" as="geometry" />
        </mxCell>
        <mxCell id="w90q0pXr2HdE4XPb6Oip-14" value="" style="edgeStyle=orthogonalEdgeStyle;rounded=0;orthogonalLoop=1;jettySize=auto;html=1;exitX=1;exitY=0.5;exitDx=0;exitDy=0;entryX=0.5;entryY=0;entryDx=0;entryDy=0;" edge="1" parent="1" target="w90q0pXr2HdE4XPb6Oip-15">
          <mxGeometry relative="1" as="geometry">
            <mxPoint x="377.0000000000001" y="-20" as="sourcePoint" />
            <mxPoint x="506.7700000000001" y="19" as="targetPoint" />
            <Array as="points">
              <mxPoint x="513.7700000000001" y="-20" />
            </Array>
          </mxGeometry>
        </mxCell>
        <mxCell id="w90q0pXr2HdE4XPb6Oip-15" value="len ++" style="rounded=0;whiteSpace=wrap;html=1;fontSize=20;" vertex="1" parent="1">
          <mxGeometry x="440.7700000000001" y="30" width="145.64" height="51" as="geometry" />
        </mxCell>
        <mxCell id="w90q0pXr2HdE4XPb6Oip-16" value="p ++" style="rounded=0;whiteSpace=wrap;html=1;fontSize=20;" vertex="1" parent="1">
          <mxGeometry x="440.7700000000001" y="136.25" width="145.64" height="51" as="geometry" />
        </mxCell>
        <mxCell id="w90q0pXr2HdE4XPb6Oip-17" value="" style="endArrow=classic;html=1;rounded=0;exitX=0.5;exitY=1;exitDx=0;exitDy=0;entryX=0.5;entryY=0;entryDx=0;entryDy=0;" edge="1" parent="1" source="w90q0pXr2HdE4XPb6Oip-15" target="w90q0pXr2HdE4XPb6Oip-16">
          <mxGeometry width="50" height="50" relative="1" as="geometry">
            <mxPoint x="180.86" y="169" as="sourcePoint" />
            <mxPoint x="230.86" y="119" as="targetPoint" />
          </mxGeometry>
        </mxCell>
        <mxCell id="w90q0pXr2HdE4XPb6Oip-18" value="" style="endArrow=classic;html=1;rounded=0;endFill=1;exitX=0.5;exitY=1;exitDx=0;exitDy=0;" edge="1" parent="1" source="w90q0pXr2HdE4XPb6Oip-16">
          <mxGeometry width="50" height="50" relative="1" as="geometry">
            <mxPoint x="515" y="170" as="sourcePoint" />
            <mxPoint x="310" y="-90" as="targetPoint" />
            <Array as="points">
              <mxPoint x="515" y="240" />
              <mxPoint x="640" y="240" />
              <mxPoint x="640" y="-90" />
            </Array>
          </mxGeometry>
        </mxCell>
        <mxCell id="w90q0pXr2HdE4XPb6Oip-19" value="" style="edgeStyle=orthogonalEdgeStyle;rounded=0;orthogonalLoop=1;jettySize=auto;html=1;" edge="1" parent="1" source="w90q0pXr2HdE4XPb6Oip-20">
          <mxGeometry relative="1" as="geometry">
            <mxPoint x="890" y="-370" as="targetPoint" />
          </mxGeometry>
        </mxCell>
        <mxCell id="w90q0pXr2HdE4XPb6Oip-20" value="&lt;p style=&quot;line-height: 110%;&quot;&gt;&lt;span style=&quot;font-size: 18px;&quot;&gt;strcat&lt;/span&gt;&lt;/p&gt;" style="ellipse;whiteSpace=wrap;html=1;" vertex="1" parent="1">
          <mxGeometry x="835" y="-470" width="110" height="60" as="geometry" />
        </mxCell>
        <mxCell id="w90q0pXr2HdE4XPb6Oip-21" value="&lt;span style=&quot;font-size: 25px;&quot;&gt;Ввод &lt;br&gt;s1, s2&lt;br&gt;&lt;/span&gt;" style="shape=parallelogram;perimeter=parallelogramPerimeter;whiteSpace=wrap;html=1;fixedSize=1;" vertex="1" parent="1">
          <mxGeometry x="830" y="-369" width="120" height="60" as="geometry" />
        </mxCell>
        <mxCell id="w90q0pXr2HdE4XPb6Oip-22" value="L1 = strlen(s1)" style="rounded=0;whiteSpace=wrap;html=1;fontSize=20;" vertex="1" parent="1">
          <mxGeometry x="817.1800000000001" y="-260" width="145.64" height="51" as="geometry" />
        </mxCell>
        <mxCell id="w90q0pXr2HdE4XPb6Oip-23" value="" style="edgeStyle=orthogonalEdgeStyle;rounded=0;orthogonalLoop=1;jettySize=auto;html=1;exitX=0.5;exitY=1;exitDx=0;exitDy=0;entryX=0.5;entryY=0;entryDx=0;entryDy=0;" edge="1" parent="1" target="w90q0pXr2HdE4XPb6Oip-22">
          <mxGeometry relative="1" as="geometry">
            <mxPoint x="909" y="-211" as="targetPoint" />
            <mxPoint x="889" y="-309" as="sourcePoint" />
          </mxGeometry>
        </mxCell>
        <mxCell id="w90q0pXr2HdE4XPb6Oip-24" value="L2 = strlen(s2)" style="rounded=0;whiteSpace=wrap;html=1;fontSize=20;" vertex="1" parent="1">
          <mxGeometry x="817.1800000000001" y="-162" width="145.64" height="51" as="geometry" />
        </mxCell>
        <mxCell id="w90q0pXr2HdE4XPb6Oip-25" value="" style="edgeStyle=orthogonalEdgeStyle;rounded=0;orthogonalLoop=1;jettySize=auto;html=1;exitX=0.5;exitY=1;exitDx=0;exitDy=0;entryX=0.5;entryY=0;entryDx=0;entryDy=0;" edge="1" parent="1" target="w90q0pXr2HdE4XPb6Oip-24">
          <mxGeometry relative="1" as="geometry">
            <mxPoint x="909" y="-111" as="targetPoint" />
            <mxPoint x="889" y="-209" as="sourcePoint" />
          </mxGeometry>
        </mxCell>
        <mxCell id="w90q0pXr2HdE4XPb6Oip-26" value="s3 = malloc(L1 + L2 + 1)" style="rounded=0;whiteSpace=wrap;html=1;fontSize=20;" vertex="1" parent="1">
          <mxGeometry x="750" y="-51" width="280" height="51" as="geometry" />
        </mxCell>
        <mxCell id="w90q0pXr2HdE4XPb6Oip-27" value="" style="edgeStyle=orthogonalEdgeStyle;rounded=0;orthogonalLoop=1;jettySize=auto;html=1;exitX=0.5;exitY=1;exitDx=0;exitDy=0;entryX=0.5;entryY=0;entryDx=0;entryDy=0;" edge="1" parent="1" source="w90q0pXr2HdE4XPb6Oip-24" target="w90q0pXr2HdE4XPb6Oip-26">
          <mxGeometry relative="1" as="geometry">
            <mxPoint x="909" y="-11" as="targetPoint" />
            <mxPoint x="889" y="-109" as="sourcePoint" />
          </mxGeometry>
        </mxCell>
        <mxCell id="w90q0pXr2HdE4XPb6Oip-28" value="memcpy(s3, s1, L1)" style="rounded=0;whiteSpace=wrap;html=1;fontSize=20;" vertex="1" parent="1">
          <mxGeometry x="750" y="35" width="280" height="51" as="geometry" />
        </mxCell>
        <mxCell id="w90q0pXr2HdE4XPb6Oip-29" value="" style="edgeStyle=orthogonalEdgeStyle;rounded=0;orthogonalLoop=1;jettySize=auto;html=1;exitX=0.5;exitY=1;exitDx=0;exitDy=0;entryX=0.5;entryY=0;entryDx=0;entryDy=0;" edge="1" parent="1" source="w90q0pXr2HdE4XPb6Oip-26" target="w90q0pXr2HdE4XPb6Oip-28">
          <mxGeometry relative="1" as="geometry">
            <mxPoint x="909" y="109" as="targetPoint" />
            <mxPoint x="889" y="11" as="sourcePoint" />
          </mxGeometry>
        </mxCell>
        <mxCell id="w90q0pXr2HdE4XPb6Oip-30" value="memcpy(s3 + L1, s2, L2 + 1)" style="rounded=0;whiteSpace=wrap;html=1;fontSize=20;" vertex="1" parent="1">
          <mxGeometry x="750" y="134" width="280" height="51" as="geometry" />
        </mxCell>
        <mxCell id="w90q0pXr2HdE4XPb6Oip-31" value="" style="edgeStyle=orthogonalEdgeStyle;rounded=0;orthogonalLoop=1;jettySize=auto;html=1;exitX=0.5;exitY=1;exitDx=0;exitDy=0;entryX=0.5;entryY=0;entryDx=0;entryDy=0;" edge="1" parent="1" source="w90q0pXr2HdE4XPb6Oip-30" target="w90q0pXr2HdE4XPb6Oip-32">
          <mxGeometry relative="1" as="geometry">
            <mxPoint x="890" y="304.25" as="targetPoint" />
            <mxPoint x="890" y="264.25" as="sourcePoint" />
          </mxGeometry>
        </mxCell>
        <mxCell id="w90q0pXr2HdE4XPb6Oip-32" value="&lt;span style=&quot;font-size: 25px;&quot;&gt;Вывод&lt;br&gt;s3&lt;br&gt;&lt;/span&gt;" style="shape=parallelogram;perimeter=parallelogramPerimeter;whiteSpace=wrap;html=1;fixedSize=1;" vertex="1" parent="1">
          <mxGeometry x="830" y="220" width="120" height="60" as="geometry" />
        </mxCell>
        <mxCell id="w90q0pXr2HdE4XPb6Oip-33" value="" style="edgeStyle=orthogonalEdgeStyle;rounded=0;orthogonalLoop=1;jettySize=auto;html=1;exitX=0.5;exitY=1;exitDx=0;exitDy=0;entryX=0.5;entryY=0;entryDx=0;entryDy=0;" edge="1" parent="1" source="w90q0pXr2HdE4XPb6Oip-28" target="w90q0pXr2HdE4XPb6Oip-30">
          <mxGeometry relative="1" as="geometry">
            <mxPoint x="900" y="50" as="targetPoint" />
            <mxPoint x="900" y="10" as="sourcePoint" />
          </mxGeometry>
        </mxCell>
        <mxCell id="w90q0pXr2HdE4XPb6Oip-35" value="&lt;font style=&quot;font-size: 23px;&quot;&gt;Да&lt;/font&gt;" style="edgeLabel;html=1;align=center;verticalAlign=middle;resizable=0;points=[];" vertex="1" connectable="0" parent="1">
          <mxGeometry x="204.00142857142873" y="-19.999999999999773" as="geometry" />
        </mxCell>
        <mxCell id="w90q0pXr2HdE4XPb6Oip-37" value="&lt;p style=&quot;line-height: 110%;&quot;&gt;&lt;span style=&quot;font-size: 18px;&quot;&gt;filter&lt;/span&gt;&lt;/p&gt;" style="ellipse;whiteSpace=wrap;html=1;" vertex="1" parent="1">
          <mxGeometry x="1260" y="-470" width="110" height="60" as="geometry" />
        </mxCell>
        <mxCell id="w90q0pXr2HdE4XPb6Oip-38" value="" style="edgeStyle=orthogonalEdgeStyle;rounded=0;orthogonalLoop=1;jettySize=auto;html=1;" edge="1" parent="1">
          <mxGeometry relative="1" as="geometry">
            <mxPoint x="1315" y="-370" as="targetPoint" />
            <mxPoint x="1315" y="-410" as="sourcePoint" />
          </mxGeometry>
        </mxCell>
        <mxCell id="w90q0pXr2HdE4XPb6Oip-43" style="edgeStyle=orthogonalEdgeStyle;rounded=0;orthogonalLoop=1;jettySize=auto;html=1;exitX=0.5;exitY=1;exitDx=0;exitDy=0;entryX=0.5;entryY=0;entryDx=0;entryDy=0;" edge="1" parent="1" source="w90q0pXr2HdE4XPb6Oip-39" target="w90q0pXr2HdE4XPb6Oip-42">
          <mxGeometry relative="1" as="geometry" />
        </mxCell>
        <mxCell id="w90q0pXr2HdE4XPb6Oip-39" value="&lt;span style=&quot;font-size: 25px;&quot;&gt;Ввод&lt;br&gt;s&lt;br&gt;&lt;/span&gt;" style="shape=parallelogram;perimeter=parallelogramPerimeter;whiteSpace=wrap;html=1;fixedSize=1;" vertex="1" parent="1">
          <mxGeometry x="1255" y="-369" width="120" height="60" as="geometry" />
        </mxCell>
        <mxCell id="w90q0pXr2HdE4XPb6Oip-46" style="edgeStyle=orthogonalEdgeStyle;rounded=0;orthogonalLoop=1;jettySize=auto;html=1;exitX=0.5;exitY=1;exitDx=0;exitDy=0;entryX=0.5;entryY=0;entryDx=0;entryDy=0;" edge="1" parent="1" source="w90q0pXr2HdE4XPb6Oip-42" target="w90q0pXr2HdE4XPb6Oip-47">
          <mxGeometry relative="1" as="geometry">
            <mxPoint x="1314.666666666667" y="-149.99999999999977" as="targetPoint" />
          </mxGeometry>
        </mxCell>
        <mxCell id="w90q0pXr2HdE4XPb6Oip-42" value="res = malloc(1)" style="rounded=0;whiteSpace=wrap;html=1;fontSize=20;" vertex="1" parent="1">
          <mxGeometry x="1242.18" y="-260" width="145.64" height="51" as="geometry" />
        </mxCell>
        <mxCell id="w90q0pXr2HdE4XPb6Oip-92" style="edgeStyle=orthogonalEdgeStyle;rounded=0;orthogonalLoop=1;jettySize=auto;html=1;exitX=0.5;exitY=1;exitDx=0;exitDy=0;entryX=0.5;entryY=0;entryDx=0;entryDy=0;" edge="1" parent="1" source="w90q0pXr2HdE4XPb6Oip-47" target="w90q0pXr2HdE4XPb6Oip-76">
          <mxGeometry relative="1" as="geometry" />
        </mxCell>
        <mxCell id="w90q0pXr2HdE4XPb6Oip-47" value="res[0] = &#39;\0&#39;" style="rounded=0;whiteSpace=wrap;html=1;fontSize=20;" vertex="1" parent="1">
          <mxGeometry x="1242.18" y="-162" width="145.64" height="51" as="geometry" />
        </mxCell>
        <mxCell id="w90q0pXr2HdE4XPb6Oip-54" style="edgeStyle=orthogonalEdgeStyle;rounded=0;orthogonalLoop=1;jettySize=auto;html=1;exitX=1;exitY=0.5;exitDx=0;exitDy=0;entryX=0.5;entryY=0;entryDx=0;entryDy=0;" edge="1" parent="1" source="w90q0pXr2HdE4XPb6Oip-53" target="w90q0pXr2HdE4XPb6Oip-59">
          <mxGeometry relative="1" as="geometry">
            <mxPoint x="1480" y="513.5" as="targetPoint" />
          </mxGeometry>
        </mxCell>
        <mxCell id="w90q0pXr2HdE4XPb6Oip-56" style="edgeStyle=orthogonalEdgeStyle;rounded=0;orthogonalLoop=1;jettySize=auto;html=1;exitX=0;exitY=0.5;exitDx=0;exitDy=0;entryX=0.5;entryY=0;entryDx=0;entryDy=0;" edge="1" parent="1" source="w90q0pXr2HdE4XPb6Oip-53" target="w90q0pXr2HdE4XPb6Oip-88">
          <mxGeometry relative="1" as="geometry">
            <mxPoint x="1110" y="580" as="targetPoint" />
            <Array as="points">
              <mxPoint x="1065" y="363" />
            </Array>
          </mxGeometry>
        </mxCell>
        <mxCell id="w90q0pXr2HdE4XPb6Oip-53" value="&lt;span style=&quot;font-size: 20px;&quot;&gt;t == NULL&lt;/span&gt;" style="rhombus;whiteSpace=wrap;html=1;" vertex="1" parent="1">
          <mxGeometry x="1248.2999999999997" y="323" width="133.41" height="80" as="geometry" />
        </mxCell>
        <mxCell id="w90q0pXr2HdE4XPb6Oip-55" value="&lt;font style=&quot;font-size: 23px;&quot;&gt;Да&lt;/font&gt;" style="edgeLabel;html=1;align=center;verticalAlign=middle;resizable=0;points=[];" vertex="1" connectable="0" parent="1">
          <mxGeometry x="1135.3214285714287" y="358.5000000000002" as="geometry" />
        </mxCell>
        <mxCell id="w90q0pXr2HdE4XPb6Oip-57" value="&lt;span style=&quot;font-size: 25px;&quot;&gt;Вывод&lt;br&gt;res&lt;br&gt;&lt;/span&gt;" style="shape=parallelogram;perimeter=parallelogramPerimeter;whiteSpace=wrap;html=1;fixedSize=1;" vertex="1" parent="1">
          <mxGeometry x="1005.32" y="863.5" width="120" height="60" as="geometry" />
        </mxCell>
        <mxCell id="w90q0pXr2HdE4XPb6Oip-61" style="edgeStyle=orthogonalEdgeStyle;rounded=0;orthogonalLoop=1;jettySize=auto;html=1;exitX=0.5;exitY=1;exitDx=0;exitDy=0;entryX=0.5;entryY=0;entryDx=0;entryDy=0;" edge="1" parent="1" source="w90q0pXr2HdE4XPb6Oip-59" target="w90q0pXr2HdE4XPb6Oip-60">
          <mxGeometry relative="1" as="geometry" />
        </mxCell>
        <mxCell id="w90q0pXr2HdE4XPb6Oip-59" value="len = strlen(t)" style="rounded=0;whiteSpace=wrap;html=1;fontSize=20;" vertex="1" parent="1">
          <mxGeometry x="1399.9999999999998" y="461.5" width="145.64" height="51" as="geometry" />
        </mxCell>
        <mxCell id="w90q0pXr2HdE4XPb6Oip-62" style="edgeStyle=orthogonalEdgeStyle;rounded=0;orthogonalLoop=1;jettySize=auto;html=1;exitX=0;exitY=0.5;exitDx=0;exitDy=0;" edge="1" parent="1" source="w90q0pXr2HdE4XPb6Oip-60">
          <mxGeometry relative="1" as="geometry">
            <mxPoint x="1300" y="683.5" as="targetPoint" />
          </mxGeometry>
        </mxCell>
        <mxCell id="w90q0pXr2HdE4XPb6Oip-71" style="edgeStyle=orthogonalEdgeStyle;rounded=0;orthogonalLoop=1;jettySize=auto;html=1;exitX=1;exitY=0.5;exitDx=0;exitDy=0;entryX=0.5;entryY=0;entryDx=0;entryDy=0;" edge="1" parent="1" source="w90q0pXr2HdE4XPb6Oip-60" target="w90q0pXr2HdE4XPb6Oip-80">
          <mxGeometry relative="1" as="geometry">
            <mxPoint x="1650" y="693.5" as="targetPoint" />
          </mxGeometry>
        </mxCell>
        <mxCell id="w90q0pXr2HdE4XPb6Oip-60" value="&lt;span style=&quot;font-size: 20px;&quot;&gt;len &amp;gt; 3 &amp;amp;&amp;amp; len &amp;lt; 7&lt;/span&gt;" style="rhombus;whiteSpace=wrap;html=1;" vertex="1" parent="1">
          <mxGeometry x="1365.8799999999999" y="553.5" width="213.88" height="80" as="geometry" />
        </mxCell>
        <mxCell id="w90q0pXr2HdE4XPb6Oip-64" value="&lt;font style=&quot;font-size: 23px;&quot;&gt;Да&lt;/font&gt;" style="edgeLabel;html=1;align=center;verticalAlign=middle;resizable=0;points=[];" vertex="1" connectable="0" parent="1">
          <mxGeometry x="1333.0014285714287" y="591.5000000000002" as="geometry" />
        </mxCell>
        <mxCell id="w90q0pXr2HdE4XPb6Oip-66" style="edgeStyle=orthogonalEdgeStyle;rounded=0;orthogonalLoop=1;jettySize=auto;html=1;exitX=0.5;exitY=1;exitDx=0;exitDy=0;" edge="1" parent="1" source="w90q0pXr2HdE4XPb6Oip-65">
          <mxGeometry relative="1" as="geometry">
            <mxPoint x="1302" y="773.5" as="targetPoint" />
          </mxGeometry>
        </mxCell>
        <mxCell id="w90q0pXr2HdE4XPb6Oip-65" value="tmp = res" style="rounded=0;whiteSpace=wrap;html=1;fontSize=20;" vertex="1" parent="1">
          <mxGeometry x="1229.3599999999997" y="683.5" width="145.64" height="51" as="geometry" />
        </mxCell>
        <mxCell id="w90q0pXr2HdE4XPb6Oip-67" value="res = strcat(res, t)" style="rounded=0;whiteSpace=wrap;html=1;fontSize=20;" vertex="1" parent="1">
          <mxGeometry x="1216.86" y="773.5" width="170.64" height="51" as="geometry" />
        </mxCell>
        <mxCell id="w90q0pXr2HdE4XPb6Oip-68" style="edgeStyle=orthogonalEdgeStyle;rounded=0;orthogonalLoop=1;jettySize=auto;html=1;exitX=0.5;exitY=1;exitDx=0;exitDy=0;" edge="1" parent="1">
          <mxGeometry relative="1" as="geometry">
            <mxPoint x="1302" y="863.5" as="targetPoint" />
            <mxPoint x="1302" y="824.5" as="sourcePoint" />
          </mxGeometry>
        </mxCell>
        <mxCell id="w90q0pXr2HdE4XPb6Oip-70" style="edgeStyle=orthogonalEdgeStyle;rounded=0;orthogonalLoop=1;jettySize=auto;html=1;exitX=0.5;exitY=1;exitDx=0;exitDy=0;endArrow=classicThin;endFill=1;" edge="1" parent="1">
          <mxGeometry relative="1" as="geometry">
            <mxPoint x="1320" y="150" as="targetPoint" />
            <mxPoint x="1299.18" y="914.5" as="sourcePoint" />
            <Array as="points">
              <mxPoint x="1299" y="979" />
              <mxPoint x="1837" y="979" />
            </Array>
          </mxGeometry>
        </mxCell>
        <mxCell id="w90q0pXr2HdE4XPb6Oip-69" value="free(tmp)" style="rounded=0;whiteSpace=wrap;html=1;fontSize=20;" vertex="1" parent="1">
          <mxGeometry x="1216.86" y="863.5" width="170.64" height="51" as="geometry" />
        </mxCell>
        <mxCell id="w90q0pXr2HdE4XPb6Oip-75" style="edgeStyle=orthogonalEdgeStyle;rounded=0;orthogonalLoop=1;jettySize=auto;html=1;exitX=0.5;exitY=1;exitDx=0;exitDy=0;entryX=0.5;entryY=0;entryDx=0;entryDy=0;" edge="1" parent="1" source="w90q0pXr2HdE4XPb6Oip-76" target="w90q0pXr2HdE4XPb6Oip-77">
          <mxGeometry relative="1" as="geometry">
            <mxPoint x="1314.666666666667" y="160.00000000000023" as="targetPoint" />
          </mxGeometry>
        </mxCell>
        <mxCell id="w90q0pXr2HdE4XPb6Oip-76" value="new = malloc(1)" style="rounded=0;whiteSpace=wrap;html=1;fontSize=20;" vertex="1" parent="1">
          <mxGeometry x="1236.0900000000001" y="-45.5" width="157.82" height="51" as="geometry" />
        </mxCell>
        <mxCell id="w90q0pXr2HdE4XPb6Oip-95" style="edgeStyle=orthogonalEdgeStyle;rounded=0;orthogonalLoop=1;jettySize=auto;html=1;exitX=0.5;exitY=1;exitDx=0;exitDy=0;entryX=0.5;entryY=0;entryDx=0;entryDy=0;" edge="1" parent="1" source="w90q0pXr2HdE4XPb6Oip-77" target="w90q0pXr2HdE4XPb6Oip-94">
          <mxGeometry relative="1" as="geometry" />
        </mxCell>
        <mxCell id="w90q0pXr2HdE4XPb6Oip-77" value="new[0] = &#39;\0&#39;" style="rounded=0;whiteSpace=wrap;html=1;fontSize=20;" vertex="1" parent="1">
          <mxGeometry x="1242.18" y="35" width="145.64" height="51" as="geometry" />
        </mxCell>
        <mxCell id="w90q0pXr2HdE4XPb6Oip-79" style="edgeStyle=orthogonalEdgeStyle;rounded=0;orthogonalLoop=1;jettySize=auto;html=1;exitX=0.5;exitY=1;exitDx=0;exitDy=0;" edge="1" parent="1" source="w90q0pXr2HdE4XPb6Oip-80">
          <mxGeometry relative="1" as="geometry">
            <mxPoint x="1645.1399999999999" y="773.5" as="targetPoint" />
          </mxGeometry>
        </mxCell>
        <mxCell id="w90q0pXr2HdE4XPb6Oip-80" value="tmp = new" style="rounded=0;whiteSpace=wrap;html=1;fontSize=20;" vertex="1" parent="1">
          <mxGeometry x="1572.4999999999995" y="683.5" width="145.64" height="51" as="geometry" />
        </mxCell>
        <mxCell id="w90q0pXr2HdE4XPb6Oip-81" value="new = strcat(new, t)" style="rounded=0;whiteSpace=wrap;html=1;fontSize=20;" vertex="1" parent="1">
          <mxGeometry x="1550" y="773.5" width="190.64" height="51" as="geometry" />
        </mxCell>
        <mxCell id="w90q0pXr2HdE4XPb6Oip-82" style="edgeStyle=orthogonalEdgeStyle;rounded=0;orthogonalLoop=1;jettySize=auto;html=1;exitX=0.5;exitY=1;exitDx=0;exitDy=0;" edge="1" parent="1">
          <mxGeometry relative="1" as="geometry">
            <mxPoint x="1645.1399999999999" y="863.5" as="targetPoint" />
            <mxPoint x="1645.1399999999999" y="824.5" as="sourcePoint" />
          </mxGeometry>
        </mxCell>
        <mxCell id="w90q0pXr2HdE4XPb6Oip-84" style="edgeStyle=orthogonalEdgeStyle;rounded=0;orthogonalLoop=1;jettySize=auto;html=1;exitX=0.5;exitY=1;exitDx=0;exitDy=0;endArrow=none;endFill=0;" edge="1" parent="1" source="w90q0pXr2HdE4XPb6Oip-83">
          <mxGeometry relative="1" as="geometry">
            <mxPoint x="1644.7142857142858" y="979" as="targetPoint" />
          </mxGeometry>
        </mxCell>
        <mxCell id="w90q0pXr2HdE4XPb6Oip-83" value="free(tmp)" style="rounded=0;whiteSpace=wrap;html=1;fontSize=20;" vertex="1" parent="1">
          <mxGeometry x="1560" y="863.5" width="170.64" height="51" as="geometry" />
        </mxCell>
        <mxCell id="w90q0pXr2HdE4XPb6Oip-87" style="edgeStyle=orthogonalEdgeStyle;rounded=0;orthogonalLoop=1;jettySize=auto;html=1;exitX=0.5;exitY=1;exitDx=0;exitDy=0;entryX=0.5;entryY=0;entryDx=0;entryDy=0;" edge="1" parent="1" source="w90q0pXr2HdE4XPb6Oip-88" target="w90q0pXr2HdE4XPb6Oip-89">
          <mxGeometry relative="1" as="geometry">
            <mxPoint x="1065.1399999999999" y="670.5" as="targetPoint" />
          </mxGeometry>
        </mxCell>
        <mxCell id="w90q0pXr2HdE4XPb6Oip-88" value="tmp = s" style="rounded=0;whiteSpace=wrap;html=1;fontSize=20;" vertex="1" parent="1">
          <mxGeometry x="992.4999999999997" y="568" width="145.64" height="51" as="geometry" />
        </mxCell>
        <mxCell id="w90q0pXr2HdE4XPb6Oip-89" value="s = new" style="rounded=0;whiteSpace=wrap;html=1;fontSize=20;" vertex="1" parent="1">
          <mxGeometry x="979.9999999999999" y="683.5" width="170.64" height="51" as="geometry" />
        </mxCell>
        <mxCell id="w90q0pXr2HdE4XPb6Oip-90" style="edgeStyle=orthogonalEdgeStyle;rounded=0;orthogonalLoop=1;jettySize=auto;html=1;exitX=0.5;exitY=1;exitDx=0;exitDy=0;entryX=0.5;entryY=0;entryDx=0;entryDy=0;" edge="1" parent="1" source="w90q0pXr2HdE4XPb6Oip-89" target="w90q0pXr2HdE4XPb6Oip-91">
          <mxGeometry relative="1" as="geometry">
            <mxPoint x="1065.1399999999999" y="808" as="targetPoint" />
            <mxPoint x="1065.1399999999999" y="769" as="sourcePoint" />
          </mxGeometry>
        </mxCell>
        <mxCell id="w90q0pXr2HdE4XPb6Oip-93" style="edgeStyle=orthogonalEdgeStyle;rounded=0;orthogonalLoop=1;jettySize=auto;html=1;exitX=0.5;exitY=1;exitDx=0;exitDy=0;entryX=0.5;entryY=0;entryDx=0;entryDy=0;" edge="1" parent="1" source="w90q0pXr2HdE4XPb6Oip-91" target="w90q0pXr2HdE4XPb6Oip-57">
          <mxGeometry relative="1" as="geometry" />
        </mxCell>
        <mxCell id="w90q0pXr2HdE4XPb6Oip-91" value="free(tmp)" style="rounded=0;whiteSpace=wrap;html=1;fontSize=20;" vertex="1" parent="1">
          <mxGeometry x="979.9999999999999" y="773.5" width="170.64" height="51" as="geometry" />
        </mxCell>
        <mxCell id="w90q0pXr2HdE4XPb6Oip-96" style="edgeStyle=orthogonalEdgeStyle;rounded=0;orthogonalLoop=1;jettySize=auto;html=1;exitX=0.5;exitY=1;exitDx=0;exitDy=0;entryX=0.5;entryY=0;entryDx=0;entryDy=0;" edge="1" parent="1" source="w90q0pXr2HdE4XPb6Oip-94" target="w90q0pXr2HdE4XPb6Oip-53">
          <mxGeometry relative="1" as="geometry" />
        </mxCell>
        <mxCell id="w90q0pXr2HdE4XPb6Oip-94" value="t = strtok(s, &quot; \t&quot;)" style="rounded=0;whiteSpace=wrap;html=1;fontSize=20;" vertex="1" parent="1">
          <mxGeometry x="1232.19" y="224.5" width="167.81" height="51" as="geometry" />
        </mxCell>
      </root>
    </mxGraphModel>
  </diagram>
</mxfile>
